Coordinates
version=1
nRows=15
nColumns=42
inDegrees=yes

Units are S.I. units (second, meters, Newtons, ...)
If the header above contains a line with 'inDegrees', this indicates whether rotational values are in degrees (yes) or radians (no).

endheader
time	pelvis_tilt	pelvis_list	pelvis_rotation	pelvis_tx	pelvis_ty	pelvis_tz	hip_flexion_r	hip_adduction_r	hip_rotation_r	knee_angle_r	knee_adduction_r	knee_angle_r_beta	ankle_angle_r	subtalar_angle_r	mtp_angle_r	hip_flexion_l	hip_adduction_l	hip_rotation_l	knee_angle_l	knee_adduction_l	knee_angle_l_beta	ankle_angle_l	subtalar_angle_l	mtp_angle_l	lumbar_extension	lumbar_bending	lumbar_rotation	arm_flex_r	arm_add_r	arm_rot_r	elbow_flex_r	pro_sup_r	wrist_flex_r	wrist_dev_r	arm_flex_l	arm_add_l	arm_rot_l	elbow_flex_l	pro_sup_l	wrist_flex_l	wrist_dev_l
      0.50000000	      1.11493908	      4.16577541	     11.01640668	     -0.06095361	      0.89248534	      0.37899691	     19.63170600	    -17.65653613	    -18.16323083	     62.30101881	      2.92067083	      1.08735791	      9.00297784	     -7.71249698	     -9.40730102	      4.04304072	     -1.37771360	     -4.35777198	      1.63194405	      5.60219755	      0.02848280	      5.57768634	     32.67217570	     -9.40730102	    -19.77355995	     -6.26492953	     -3.79112332	     -6.13879637	    -22.18533072	    -19.72165717	     96.93724459	     90.00000001	      0.00000000	      0.00000000	     -0.11870003	    -24.92509376	     13.16306778	     90.36316651	     90.00000001	      0.00000000	      0.00000000
      0.51000000	      0.75586955	      4.24708030	     11.07695841	     -0.05839618	      0.89214651	      0.37950064	     20.89640421	    -17.81373363	    -18.13879708	     59.78471939	      2.75536807	      1.04344020	     10.30538045	     -7.79497180	     -9.36693776	      4.21973068	     -1.29860637	     -4.35190382	      1.58886158	      5.60764856	      0.02773087	      5.70321658	     32.62016537	     -9.36693776	    -19.78425294	     -6.16441291	     -3.82930113	     -6.19029668	    -21.52088657	    -19.64014262	     95.07236097	     90.00000001	      0.00000000	      0.00000000	      0.66278650	    -25.48195847	     13.47798892	     89.96092928	     90.00000001	      0.00000000	      0.00000000
      0.52000000	      0.39852404	      4.29597225	     11.09639539	     -0.05566340	      0.89179631	      0.38027028	     21.91404452	    -17.77575718	    -18.07462165	     56.72700224	      2.67884207	      0.99007296	     11.38000321	     -7.50140246	     -9.32578764	      4.40620719	     -1.30343719	     -4.37685609	      1.58963402	      5.66042679	      0.02774435	      5.84367574	     32.57160322	     -9.32578764	    -19.75319542	     -6.05946431	     -3.76194082	     -6.24451944	    -20.91286366	    -19.51341173	     93.17399640	     90.00000001	      0.00000000	      0.00000000	      1.44809745	    -26.00897275	     13.87166911	     89.53922866	     90.00000001	      0.00000000	      0.00000000
      0.53000000	      0.73254215	      4.00171451	     11.11652127	     -0.05214072	      0.89251321	      0.38138772	     21.64898146	    -16.99273034	    -18.96311260	     52.77555531	      2.08953103	      0.92110720	     12.44624117	     -5.98582008	     -9.22144692	      3.85121817	     -2.09780097	     -4.79915005	      1.61332557	      6.21251775	      0.02815784	      6.04391132	     33.24832630	     -9.22144692	    -20.30693303	     -5.45052447	     -3.48166168	     -6.28697184	    -20.41575226	    -19.41471952	     91.34406592	     90.00000001	      0.00000000	      0.00000000	      2.39793170	    -26.49492260	     14.42967777	     89.03274067	     90.00000001	      0.00000000	      0.00000000
      0.54000000	      0.60316415	      4.00669966	     11.14715833	     -0.04885328	      0.89241396	      0.38245152	     21.83891829	    -16.60818773	    -19.23704190	     48.91258451	      1.88680142	      0.85368565	     12.92801681	     -4.60651379	     -9.11263016	      3.75790649	     -2.27339430	     -4.84206483	      1.60846512	      6.36548998	      0.02807301	      6.25036429	     33.42589102	     -9.11263016	    -20.39792356	     -5.26596690	     -3.37307289	     -6.18853002	    -19.94422886	    -19.06446380	     89.33469869	     90.00000001	      0.00000000	      0.00000000	      3.10943176	    -26.93060687	     14.68718423	     88.72395025	     90.00000001	      0.00000000	      0.00000000
      0.55000000	      0.29126667	      4.13152277	     11.18970255	     -0.04560601	      0.89192573	      0.38359000	     22.06908440	    -16.37493547	    -18.95118293	     45.09071326	      2.16057480	      0.78698141	     12.98523089	     -3.61215149	     -9.06174889	      3.83150109	     -2.25824897	     -4.70983154	      1.56833395	      6.46398696	      0.02737259	      6.50123974	     33.36201174	     -9.06174889	    -20.27339543	     -5.26881543	     -3.28278338	     -6.00985822	    -19.47739410	    -18.60717673	     87.25126971	     90.00000001	      0.00000000	      0.00000000	      3.79989404	    -27.31840806	     14.97401216	     88.46332951	     90.00000001	      0.00000000	      0.00000000
      0.56000000	     -0.15838976	      4.39706046	     11.25525472	     -0.04226120	      0.89117015	      0.38471840	     22.32479797	    -16.24128788	    -18.53511857	     41.39467469	      2.33865492	      0.72247337	     12.58836400	     -2.60981307	     -9.03144362	      4.08538335	     -1.89618526	     -4.56612870	      1.63751947	      6.21872493	      0.02858011	      6.68632218	     33.21769289	     -9.03144362	    -19.98611851	     -5.44116266	     -3.22004210	     -5.91221578	    -19.04048093	    -18.15346474	     85.36367895	     90.00000001	      0.00000000	      0.00000000	      4.39762636	    -27.78162390	     15.16919598	     88.36171984	     90.00000001	      0.00000000	      0.00000000
      0.57000000	      0.22008726	      4.33295863	     11.54026385	     -0.03819744	      0.89169917	      0.38601558	     21.13354693	    -15.52817480	    -19.06034034	     37.34773948	      2.26604634	      0.65184102	     12.15687209	     -1.09030358	     -8.94560388	      3.40104144	     -2.39264340	     -4.37454606	      1.55909458	      6.61668229	      0.02721133	      6.95890809	     33.38051961	     -8.94560388	    -20.46686584	     -5.06515938	     -3.24018879	     -5.68110377	    -18.76740965	    -17.46063950	     83.41260687	     90.00000001	      0.00000000	      0.00000000	      5.04790113	    -28.08748073	     15.24022616	     88.29942437	     90.00000001	      0.00000000	      0.00000000
      0.58000000	      0.09589383	      4.59953573	     11.88993243	     -0.03447575	      0.89139283	      0.38711920	     20.63334402	    -15.38436121	    -18.97338114	     34.13017674	      2.43123853	      0.59568396	     11.60016520	      0.00412037	     -8.88198291	      3.29240809	     -2.19457085	     -3.96269159	      1.59364152	      6.57396373	      0.02781429	      7.21281569	     33.34365225	     -8.88198291	    -20.45760680	     -5.13266586	     -3.41967088	     -5.43891265	    -18.41015330	    -16.78044191	     81.55019979	     90.00000001	      0.00000000	      0.00000000	      5.63760735	    -28.47960149	     15.34918872	     88.30926937	     90.00000001	      0.00000000	      0.00000000
      0.59000000	     -0.00582170	      4.87150184	     12.37283650	     -0.03072855	      0.89116346	      0.38815263	     20.05563368	    -15.30238447	    -18.98857504	     31.44159299	      2.55605555	      0.54875932	     11.03909282	      0.90531526	     -8.82824528	      3.18659773	     -1.95381967	     -3.43466220	      1.64427702	      6.45780761	      0.02869805	      7.45970092	     33.26967601	     -8.82824528	    -20.44864991	     -5.17639795	     -3.69086852	     -5.19224977	    -18.07470301	    -16.09660851	     79.75361702	     90.00000001	      0.00000000	      0.00000000	      6.24064435	    -28.81565216	     15.44579135	     88.38341946	     90.00000001	      0.00000000	      0.00000000
      0.60000000	     -0.28654027	      5.21313884	     12.87765317	     -0.02709975	      0.89071887	      0.38923520	     19.77795390	    -15.39021027	    -18.84512837	     29.47721407	      2.67811468	      0.51447444	     10.60206752	      1.58105110	     -8.80623616	      3.31870224	     -1.51329037	     -2.89567971	      1.79933967	      6.16873895	      0.03140440	      7.64699352	     33.24230631	     -8.80623616	    -20.25160055	     -5.34545015	     -3.94941117	     -4.98855538	    -17.70623180	    -15.52911605	     78.07478692	     90.00000001	      0.00000000	      0.00000000	      6.86372026	    -29.13799941	     15.62240207	     88.45675814	     90.00000001	      0.00000000	      0.00000000
      0.61000000	     -0.10169020	      5.37702466	     13.65079397	     -0.02313686	      0.89114886	      0.39012916	     18.76101769	    -15.27489137	    -19.48005361	     27.79186178	      2.63294683	      0.48505949	     10.31939609	      2.16017221	     -8.76519645	      2.97078373	     -1.45039804	     -2.03097624	      1.89432196	      6.06262974	      0.03306216	      7.96387954	     33.03580592	     -8.76519645	    -20.48751824	     -5.15130455	     -4.45923195	     -4.71053590	    -17.44811913	    -14.76974302	     76.47708292	     90.00000001	      0.00000000	      0.00000000	      7.39468771	    -29.35177681	     15.56402483	     88.64584386	     90.00000001	      0.00000000	      0.00000000
      0.62000000	     -0.23574364	      5.60979647	     14.27420842	     -0.01939195	      0.89118140	      0.39129481	     18.34843836	    -15.29778802	    -19.63813733	     26.85796998	      2.59389563	      0.46876001	     10.27263327	      2.49643132	     -8.74773370	      3.01274043	     -1.13914861	     -1.45206082	      2.13601628	      5.72271113	      0.03728052	      8.11569670	     32.97929087	     -8.74773370	    -20.38840051	     -5.15669665	     -4.75664750	     -4.54026713	    -17.11401856	    -14.29743294	     75.04661824	     90.00000001	      0.00000000	      0.00000000	      8.02292099	    -29.52848437	     15.68191784	     88.74524303	     90.00000001	      0.00000000	      0.00000000
      0.63000000	     -0.15367926	      5.72216488	     15.06821038	     -0.01553769	      0.89166915	      0.39235500	     17.61582334	    -15.27800483	    -20.23267200	     26.27522547	      2.59087335	      0.45858920	     10.37177577	      2.70096364	     -8.72559640	      2.90012031	     -1.05439324	     -0.64270357	      2.43953143	      5.50642097	      0.04257786	      8.41324590	     32.81361157	     -8.72559640	    -20.47976694	     -4.95803352	     -5.21248527	     -4.34325757	    -16.83986606	    -13.76211152	     73.64418529	     90.00000001	      0.00000000	      0.00000000	      8.57820599	    -29.61279717	     15.66690532	     88.93590067	     90.00000001	      0.00000000	      0.00000000
      0.64000000	     -0.11014214	      5.79588431	     15.72119443	     -0.01163379	      0.89218933	      0.39369409	     17.05028504	    -15.19627891	    -20.66253672	     26.07712321	      2.55091144	      0.45513166	     10.60910467	      2.73291459	     -8.71074781	      2.85730572	     -0.98872144	     -0.06124733	      2.81300447	      5.23504232	      0.04909619	      8.60821752	     32.62980750	     -8.71074781	    -20.50693682	     -4.77905013	     -5.46571949	     -4.27059482	    -16.57286133	    -13.38006409	     72.51481900	     90.00000001	      0.00000000	      0.00000000	      9.12896729	    -29.55999057	     15.60984242	     89.11285517	     90.00000001	      0.00000000	      0.00000000
